<svg width="116" height="40" viewBox="0 0 116 40" fill="none" xmlns="http://www.w3.org/2000/svg">
<path d="M0 20C0 8.95431 8.95431 0 20 0H96C107.046 0 116 8.95431 116 20C116 31.0457 107.046 40 96 40H20C8.9543 40 0 31.0457 0 20Z" fill="#D8000F"/>
<path d="M99.5397 14.8614C100.496 14.8614 101.313 14.0377 101.313 13.0729C101.313 12.108 100.496 11.3301 99.5397 11.3301C98.4924 11.3301 97.7665 12.2453 97.7665 13.1186C97.7665 13.9423 98.4924 14.8614 99.5397 14.8614Z" fill="white"/>
<path d="M78.8964 21.2833L78.0306 21.0545C76.7565 20.7342 75.5316 20.4596 75.4862 19.6321C75.4862 19.3575 75.577 19.0829 75.7584 18.8999C76.0306 18.6253 76.5297 18.4422 77.1233 18.4422C78.4881 18.4422 78.8964 19.266 78.9872 19.8189C78.9872 19.9104 79.0779 19.9562 79.1686 19.9562H81.3501C81.4409 19.9562 81.5316 19.9104 81.5316 19.8189C81.4409 17.6643 79.8038 16.2876 77.1649 16.2876C74.2537 16.2876 73.0288 17.9846 73.0288 19.6816C73.0288 21.3786 73.9815 22.2481 76.439 22.8926L76.938 23.0299C78.2575 23.3502 79.1649 23.579 79.1649 24.4066C79.1195 25.1388 78.439 25.4172 77.3917 25.4172C76.2083 25.4172 75.5278 24.9138 75.3463 23.9947C75.3463 23.949 75.2556 23.8574 75.1649 23.8574H72.938C72.8473 23.8574 72.7565 23.949 72.7565 24.0405C72.938 26.5155 75.1686 27.6633 77.2594 27.6633C78.8964 27.6633 80.0344 27.2972 80.8511 26.4239C81.6223 25.646 81.7131 24.8642 81.7131 24.4523C81.7584 22.8468 80.8926 21.8363 78.8926 21.2871" fill="white"/>
<path d="M31.1064 27.1103V12.8897C31.1064 12.7982 31.0156 12.7524 30.9249 12.7524H28.3805C28.2897 12.7524 28.199 12.7982 28.199 12.8897V27.1103C28.199 27.2019 28.2897 27.2476 28.3805 27.2476H30.9249C31.0156 27.2476 31.1064 27.2019 31.1064 27.1103Z" fill="white"/>
<path d="M22.0996 20.0024C22.0996 21.2875 21.0977 22.2943 19.8274 22.2943C18.5571 22.2943 17.5552 21.2837 17.5552 20.0024C17.5552 18.721 18.5571 17.7104 19.8274 17.7104C21.0977 17.7104 22.0996 18.721 22.0996 20.0024Z" fill="white"/>
<path d="M19.8273 24.7688C21.056 24.7688 22.1449 24.3112 22.9653 23.5294C23.0106 23.5294 23.056 23.4837 23.1014 23.4837C23.1467 23.4837 23.1921 23.5294 23.2375 23.5752C23.7365 24.0786 24.8292 25.1807 25.1014 25.4553C25.1467 25.501 25.1467 25.5468 25.1467 25.5926C25.1467 25.6383 25.1467 25.6841 25.1014 25.7298C23.6458 27.0608 21.7819 27.8387 19.8273 27.8387C15.5513 27.8387 12.0957 24.3074 12.0957 19.9943C12.0957 15.6812 15.5513 12.1499 19.8273 12.1499C21.7819 12.1499 23.6458 12.9279 25.1014 14.2588C25.1467 14.3045 25.1467 14.3503 25.1467 14.3961C25.1467 14.4418 25.1467 14.4876 25.1014 14.5334C24.8292 14.8079 23.7365 15.91 23.2375 16.4134C23.1921 16.4592 23.1467 16.5049 23.1014 16.5049C23.056 16.5049 23.0106 16.4592 22.9653 16.4592C22.1486 15.6812 21.056 15.2198 19.8273 15.2198C17.2337 15.2198 15.0976 17.3744 15.0976 19.9905C15.0976 22.6066 17.2337 24.7612 19.8273 24.7612" fill="white"/>
<path d="M52.0697 25.5505C50.0697 25.5505 49.7521 24.3569 49.7521 23.4417C49.7521 23.2129 49.8428 23.0298 50.2511 23.0298H54.391C54.4364 23.0298 54.4818 23.0756 54.4818 23.1213C54.4364 24.1319 54.1642 25.5505 52.0734 25.5505M56.8031 20.5968C56.5309 17.6604 55.0753 16.3295 52.1188 16.2837C49.7559 16.2837 47.8882 17.2943 47.616 19.4947C47.616 19.5862 47.7067 19.632 47.7975 19.632H49.9789C49.9789 19.5862 50.0243 19.5862 50.0243 19.5404C50.2058 18.8082 51.0262 18.4841 52.0697 18.4841C54.1604 18.4841 54.4326 19.8608 54.478 20.9133C54.478 20.9591 54.4326 21.0048 54.3872 21.0048H49.1585C48.2511 21.0048 47.5215 21.5997 47.4307 22.6561C47.4307 23.0679 47.4307 23.6209 47.6122 24.5361C47.9298 26.1416 49.3854 27.7471 52.115 27.7471C55.0716 27.7014 56.5271 26.0959 56.7993 23.3883C56.8447 22.8391 56.8901 22.6103 56.8901 22.0116C56.8901 21.4129 56.8447 21.1383 56.7993 20.5892" fill="white"/>
<path d="M39.5166 18.488C41.5166 18.488 41.8795 19.6817 41.8341 20.5512C41.8341 20.8257 41.7434 21.0088 41.3351 21.0088H37.1952C37.1498 21.0088 37.1045 20.963 37.1045 20.9173C37.1498 19.9067 37.422 18.488 39.5128 18.488M34.7831 23.4418C35.0553 26.3782 36.5109 27.7091 39.4674 27.7091C41.8304 27.7549 43.698 26.7443 43.9702 24.5439C43.9702 24.4524 43.8795 24.3609 43.7888 24.3609H41.698C41.698 24.3609 41.6527 24.4066 41.6073 24.4066C41.6073 24.4524 41.5619 24.4524 41.5619 24.4981C41.3804 25.1846 40.56 25.5545 39.5166 25.5545C37.4258 25.5545 37.1536 24.1778 37.1082 23.1253C37.1082 23.0795 37.1536 23.0338 37.199 23.0338H42.4277C43.3351 23.0338 44.0648 22.4389 44.1555 21.3825C44.2009 20.9249 44.1555 20.4177 43.974 19.5024C43.6564 17.8969 42.2009 16.2457 39.4712 16.2915C36.5147 16.3372 35.0591 17.9427 34.7869 20.6045C34.7415 21.1537 34.6961 21.4283 34.6961 22.027C34.6961 22.6257 34.7415 22.9003 34.7869 23.4494" fill="white"/>
<path d="M89.6733 27.7051C92.6752 27.7051 94.2215 26.1911 94.2215 23.4378V16.8785C94.2215 16.8327 94.1761 16.7412 94.0854 16.7412H91.7678C91.6771 16.7412 91.6317 16.8327 91.6317 16.8785V23.0259C91.6317 24.5856 91.0419 25.1805 89.6771 25.1805C88.3122 25.1805 87.7678 24.5856 87.7678 23.0259L87.7225 17.8433V16.8823C87.7225 16.8365 87.6771 16.745 87.5863 16.745H85.2688C85.178 16.745 85.1327 16.8365 85.1327 16.8823V23.4416C85.1327 26.1949 86.7243 27.7089 89.6809 27.7089" fill="white"/>
<path d="M64.8899 16.2837C61.9334 16.2837 60.3417 17.7977 60.3417 20.5968V27.1103C60.3417 27.2018 60.387 27.2933 60.4778 27.2933H62.7954C62.8861 27.2933 62.9315 27.2018 62.9315 27.1103V26.195L62.9768 20.9667C62.9768 19.407 63.5213 18.8121 64.8861 18.8121C66.2509 18.8121 66.8407 19.407 66.8407 20.9667V27.1141C66.8407 27.2056 66.8861 27.2971 66.9768 27.2971H69.2944C69.3851 27.2971 69.4305 27.2056 69.4305 27.1141V20.6006C69.4305 17.8015 67.8842 16.2875 64.8823 16.2875" fill="white"/>
<path d="M100.949 16.8824C100.949 16.7909 100.859 16.7451 100.768 16.7451H98.2688C98.1781 16.7451 98.1327 16.7909 98.1327 16.8824V27.1103C98.1327 27.2018 98.1781 27.2475 98.2688 27.2475H100.768C100.859 27.2475 100.949 27.2018 100.949 27.1103V16.8824Z" fill="white"/>
</svg>
